<svg version="1.2" xmlns="http://www.w3.org/2000/svg" viewBox="0 0 115 115" width="115" height="115">
	<title>hearts</title>
	<style>
		.s0 { fill: #ff7979 } 
		.s1 { fill: #fe0000 } 
	</style>
	<g id="Group_4874">
		<g id="_x31_66_x2C__Heart_x2C__Love_x2C__Like_x2C__Twitter">
			<g id="Group_4873">
				<path id="Path_2073" class="s0" d="m63.6 20c2.7 0 5.4 0.5 7.9 1.6 2.5 1 4.8 2.5 6.7 4.4 1.9 1.9 3.4 4.2 4.4 6.7 1.1 2.5 1.6 5.1 1.6 7.8 0 20.6-20.6 32.3-41.1 52.8-20.6-20.5-41.1-32.2-41.1-52.8 0-2.7 0.5-5.3 1.6-7.8 1-2.5 2.5-4.8 4.4-6.7 1.9-1.9 4.2-3.4 6.7-4.4 2.5-1.1 5.1-1.6 7.8-1.6 10.3 0 15.5 5.1 20.6 15.4 5.1-10.3 10.3-15.4 20.5-15.4z"/>
			</g>
		</g>
		<g id="_x31_66_x2C__Heart_x2C__Love_x2C__Like_x2C__Twitter-2">
			<g id="Group_4873-2">
				<path id="Path_2073-2" class="s1" d="m98.3 42.9c1.9 0 3.7 0.4 5.4 1.1 1.8 0.7 3.3 1.7 4.6 3.1 1.3 1.3 2.4 2.8 3.1 4.5 0.7 1.8 1.1 3.6 1.1 5.5 0 14.1-14.2 22.1-28.3 36.2-14.1-14.1-28.2-22.1-28.2-36.2 0-1.9 0.3-3.7 1-5.5 0.7-1.7 1.8-3.2 3.1-4.5 1.3-1.3 2.9-2.4 4.6-3.1 1.7-0.7 3.5-1.1 5.4-1.1 7 0 10.6 3.6 14.1 10.6 3.5-7 7.1-10.6 14.1-10.6z"/>
			</g>
		</g>
	</g>
</svg>